                <svg xmlns="http://www.w3.org/2000/svg" id="Layer_1" data-name="Layer 1" viewBox="0 0 100 100"><path d="M49,56.31,28.83,35.81a13.15,13.15,0,0,1,0-18.38,12.63,12.63,0,0,1,18.08,0L49,19.54l2.08-2.11a12.65,12.65,0,0,1,18.08,0h0a13.15,13.15,0,0,1,0,18.38ZM37.87,16.1a10.21,10.21,0,0,0-7.32,3.08,10.67,10.67,0,0,0,0,14.88L49,52.8,67.43,34.06a10.67,10.67,0,0,0,0-14.88,10.25,10.25,0,0,0-14.64,0L49,23l-3.8-3.86A10.17,10.17,0,0,0,37.87,16.1Z" style="fill:#547dbf;stroke:#547dbf;stroke-miterlimit:10"/><path d="M19.4,48.29V36.39S17.66,33.67,15,38c0,0-1.14-14.53-4.17-5.3,0,0-2.26-23.46-6.43,1.92,0,0-.75,23.84,2.65,28.07,0,0,1.76,11.23,19.29,17.69V91.51" style="fill:#fff"/><path d="M27.84,91.51H24.89V81.4C9.13,75.24,6.14,65.3,5.69,63.26c-1-1.57-3.41-7.72-2.74-28.71l0-.2c1.81-11,3.18-13.13,5.19-13,.79,0,2.48.09,3.63,7A2,2,0,0,1,13,28.12c.66.09,2.28.29,3.17,6.46A3.44,3.44,0,0,1,17.89,34h0a3.42,3.42,0,0,1,2.72,1.53l.23.38V48.29H17.92V37h0s-.62.05-1.65,1.74L13.9,42.63l-.36-4.53a36,36,0,0,0-.92-6c-.11.28-.23.61-.37,1l-2.18,6.68-.68-7A43.34,43.34,0,0,0,8,25.25a54,54,0,0,0-2.14,9.5c-.28,9,.1,24.22,2.31,27l.26.31.06.4a15.67,15.67,0,0,0,2.92,5.94c2.29,3.08,6.82,7.41,15.42,10.58l1,.36Z" style="fill:#393e57"/><path d="M28.63,66.66s-9.83-2.07-15.88-19c0,0,3-7.69,11.34,7.7,0,0,16.54,4.13,18.86,11.29,0,0,2.6,17.78,0,24.85" style="fill:#fff"/><path d="M44.34,92l-2.77-1c2.32-6.32.17-22.34-.06-24-1.82-5.16-13.42-9.1-17.77-10.19l-.63-.16-.31-.57c-4.5-8.33-7-8.86-7.55-8.84a1.23,1.23,0,0,0-.88.56c5.71,15.36,14.47,17.36,14.56,17.38l-.6,2.94c-.43-.09-10.71-2.44-17-19.94l-.19-.54.21-.53a4.48,4.48,0,0,1,3.68-2.86c3-.17,6.26,3,10,9.81,3.44.92,17,5,19.29,12.12l0,.25C44.52,67.18,47,84.69,44.34,92Z" style="fill:#393e57"/><path d="M79.77,48V36.13s1.73-2.72,4.38,1.59c0,0,1.13-14.53,4.16-5.3,0,0,2.27-23.46,6.43,1.92,0,0,.75,23.84-2.65,28.07,0,0-1.76,11.23-19.29,17.69V91.25" style="fill:#fff"/><path d="M71.33,91.25h3V81.14C90,75,93,65,93.48,63c.94-1.57,3.4-7.73,2.73-28.71l0-.2C94.38,23,93,21,91,21c-.79,0-2.49.08-3.64,7a2,2,0,0,0-1.17-.22c-.66.08-2.27.28-3.17,6.46a3.44,3.44,0,0,0-1.76-.54h0a3.37,3.37,0,0,0-2.71,1.53l-.24.37V48h2.95V36.78h0s.61,0,1.65,1.73l2.36,3.86.36-4.53a35.7,35.7,0,0,1,.93-6c.1.27.23.61.36,1l2.19,6.68.68-7A42.72,42.72,0,0,1,91.12,25a53.78,53.78,0,0,1,2.15,9.51c.28,9-.11,24.22-2.32,27l-.25.31-.07.4a15.48,15.48,0,0,1-2.92,5.94c-2.29,3.08-6.82,7.41-15.41,10.58l-1,.36Z" style="fill:#393e57"/><path d="M70.53,66.4s9.84-2.07,15.89-19c0,0-3-7.69-11.35,7.69,0,0-16.54,4.14-18.86,11.3,0,0-2.6,17.78,0,24.85" style="fill:#fff"/><path d="M54.83,91.77l2.76-1c-2.32-6.31-.17-22.34.06-24,1.83-5.16,13.42-9.1,17.77-10.19l.63-.16.31-.57c4.51-8.33,7-8.86,7.55-8.84a1.23,1.23,0,0,1,.88.56C79.08,62.9,70.32,64.91,70.23,64.93l.6,2.94c.43-.09,10.71-2.44,17-19.94l.2-.54-.21-.53A4.49,4.49,0,0,0,84.11,44c-3-.18-6.27,3-10,9.81-3.44.92-17,5-19.28,12.12l-.06.25C54.64,66.92,52.13,84.43,54.83,91.77Z" style="fill:#393e57"/></svg>
