<svg xmlns="http://www.w3.org/2000/svg" width="25" height="25" viewBox="0 0 25 25"><defs><style>.a{fill:none;fill-rule:evenodd;}.b{fill:#3c3c3c;}</style></defs><g transform="translate(0)"><path class="a" d="M0,0H25V25H0Z" transform="translate(0)"/><path class="b" d="M11.5,19h6.279a.5.5,0,0,1,0,1H11.5a3.5,3.5,0,0,1-3.487-3.2,3.5,3.5,0,0,1-2.306-2.912L4.694,5.318A1.5,1.5,0,0,0,3.205,4H2.5a.5.5,0,0,1,0-1h.705A2.5,2.5,0,0,1,5.687,5.2L5.907,7H21.5a.5.5,0,0,1,.488.608L20.51,14.259A3.5,3.5,0,0,1,17.094,17H9.185l-.136,0A2.5,2.5,0,0,0,11.5,19ZM6.059,8,6.7,13.776A2.5,2.5,0,0,0,9.185,16h7.908a2.5,2.5,0,0,0,2.44-1.958L20.877,8Z" transform="translate(0)"/><path class="b" d="M18,23a2,2,0,1,1,2-2A2,2,0,0,1,18,23Zm0-1a1,1,0,1,0-1-1A1,1,0,0,0,18,22Z" transform="translate(0)"/><path class="b" d="M11,23a2,2,0,1,1,2-2A2,2,0,0,1,11,23Zm0-1a1,1,0,1,0-1-1A1,1,0,0,0,11,22Z" transform="translate(0)"/></g></svg>