                <svg xmlns="http://www.w3.org/2000/svg" id="Layer_1" data-name="Layer 1" viewBox="0 0 100 100"><defs><style>.cls-1{fill:#547dbf;}.cls-2{fill:#393e57;}</style></defs><path class="cls-1" d="M44.84,59.17A24.37,24.37,0,0,1,20.5,34.83V10.49H33.74v4H24.5V34.83a20.34,20.34,0,0,0,40.68,0V14.49H56.49v-4H69.18V34.83A24.37,24.37,0,0,1,44.84,59.17Z"/><rect class="cls-2" x="33.37" y="7.24" width="4" height="10.51"/><rect class="cls-2" x="52.77" y="7.24" width="4" height="10.51"/><path class="cls-1" d="M61.06,94.76a17.52,17.52,0,0,1-17.5-17.5V57h4V77.26a13.5,13.5,0,0,0,27,0h4A17.52,17.52,0,0,1,61.06,94.76Z"/><path class="cls-2" d="M76.56,74.06A10.22,10.22,0,1,1,86.78,63.84,10.23,10.23,0,0,1,76.56,74.06Zm0-16.43a6.22,6.22,0,1,0,6.22,6.21A6.21,6.21,0,0,0,76.56,57.63Z"/></svg>
