                <svg xmlns="http://www.w3.org/2000/svg" id="Layer_1" data-name="Layer 1" viewBox="0 0 100 100"><defs><style>.cls-1{fill:#547dbf;}.cls-2{fill:#393e57;}</style></defs><path class="cls-1" d="M90.67,29.39,87.58,32.3A16.56,16.56,0,0,1,83.85,50L50,83.79,16.15,49.92a16.54,16.54,0,0,1,23.4-23.39L50,37,60.45,26.57A16.54,16.54,0,0,1,79,23.19l3.1-2.92a20.55,20.55,0,0,0-24.45,3.47L50,31.34,42.38,23.7A20.54,20.54,0,0,0,13.32,52.75L48.6,88,50,89.45,86.67,52.79A20.57,20.57,0,0,0,90.67,29.39Zm-4-5.65c-.36-.36-.72-.7-1.1-1h0l-2.92,2.75h0c.41.35.81.71,1.2,1.1a16.76,16.76,0,0,1,1.66,1.93l2.92-2.75A19.48,19.48,0,0,0,86.67,23.74Z"/><path class="cls-2" d="M88.43,25.75a19.48,19.48,0,0,0-1.76-2c-.36-.36-.72-.7-1.1-1h0l-2.92,2.75L53.44,52.91l-10.36-11-2.79,2.64-.25.23,2.87,3.05,7.49,8,2.86,3h0l3-2.86h0L85.51,28.5Z"/></svg>
