<svg xmlns="http://www.w3.org/2000/svg" width="30" height="30" viewBox="0 0 30 30"><defs><style>.a,.b{fill:none;}.b{fill-rule:evenodd;}.c{fill:#3c3c3c;}</style></defs><g transform="translate(-154 -911)"><rect class="a" width="30" height="30" transform="translate(154 911)"/><g transform="translate(156.25 913.25)"><path class="b" d="M0,0H26.25V26.25H0Z"/><path class="c" d="M16.7,15.45H23V12.331c0-.01,0-.021,0-.031H16.7Zm-1.05,0V6.525A.525.525,0,0,1,16.175,6h2.134a3.675,3.675,0,0,1,2.9,1.419l2.066,2.656a3.675,3.675,0,0,1,.774,2.256v6.794A1.575,1.575,0,0,1,22.475,20.7H21.41a.525.525,0,1,1,0-1.05h1.065A.525.525,0,0,0,23,19.125V16.5H3.05v2.625a.525.525,0,0,0,.525.525H4.614a.525.525,0,1,1,0,1.05H3.575A1.575,1.575,0,0,1,2,19.125v-3.15a.525.525,0,0,1,.525-.525Zm1.05-4.2h6.067a2.625,2.625,0,0,0-.32-.531L20.381,8.063A2.625,2.625,0,0,0,18.309,7.05H16.7v4.2Zm.5,8.4a.525.525,0,0,1,0,1.05H8.958a.525.525,0,1,1,0-1.05Z" transform="translate(0.1 0.3)"/><path class="c" d="M3.05,15.6h12.6V6.675A2.625,2.625,0,0,0,13.025,4.05H5.675A2.625,2.625,0,0,0,3.05,6.675Zm3.675,2.1A2.625,2.625,0,1,1,4.1,20.325,2.625,2.625,0,0,1,6.725,17.7Zm12.6,0A2.625,2.625,0,1,1,16.7,20.325,2.625,2.625,0,0,1,19.325,17.7Zm-12.6,1.05A1.575,1.575,0,1,0,8.3,20.325,1.575,1.575,0,0,0,6.725,18.75Zm12.6,0A1.575,1.575,0,1,0,20.9,20.325,1.575,1.575,0,0,0,19.325,18.75ZM13.025,3A3.675,3.675,0,0,1,16.7,6.675v9.45a.525.525,0,0,1-.525.525H2.525A.525.525,0,0,1,2,16.125V6.675A3.675,3.675,0,0,1,5.675,3Z" transform="translate(0.1 0.15)"/></g></g></svg>