<svg xmlns="http://www.w3.org/2000/svg" width="35" height="35" viewBox="0 0 25 25"><defs><style>.a{fill:none;}</style></defs><rect class="a" width="25" height="25"/><g transform="translate(2.984 1.348)"><g transform="translate(4.796 11.902)"><path class="b" d="M129.62,274.73h-1.308v-1.308a.436.436,0,1,0-.872,0v1.308h-1.308a.436.436,0,1,0,0,.872h1.308v1.308a.436.436,0,1,0,.872,0V275.6h1.308a.436.436,0,1,0,0-.872Z" transform="translate(-125.696 -272.986)"/></g><g transform="translate(0)"><path class="b" d="M36.188,14.039a3.486,3.486,0,0,0-4.764-1.277l-1.771,1.022V10a2.2,2.2,0,0,0-.436-1.308l-2.18-2.906V4.546a1.31,1.31,0,0,0,.872-1.233V1.308A1.31,1.31,0,0,0,26.6,0H18.753a1.309,1.309,0,0,0-1.308,1.308V3.314a1.31,1.31,0,0,0,.872,1.233V5.784l-2.18,2.907A2.2,2.2,0,0,0,15.7,10v8.444a2.182,2.182,0,0,0,2.18,2.18h7.007a3.484,3.484,0,0,0,4.738,1.233L34.912,18.8A3.49,3.49,0,0,0,36.188,14.039ZM18.317,1.308a.436.436,0,0,1,.436-.436H26.6a.437.437,0,0,1,.436.436V3.314a.436.436,0,0,1-.436.436H18.753a.436.436,0,0,1-.436-.436V1.308ZM16.835,9.214,19.1,6.191a.436.436,0,0,0,.087-.262V4.621h6.976v.872H22.241a.436.436,0,1,0,0,.872h4.142l2.136,2.848a1.319,1.319,0,0,1,.253.64H16.582A1.319,1.319,0,0,1,16.835,9.214ZM17.881,19.75a1.309,1.309,0,0,1-1.308-1.308V18h7.921a3.494,3.494,0,0,0,.021,1.748H17.881Zm6.955-2.616H16.573V10.725H28.781v3.563l-2.643,1.526A3.462,3.462,0,0,0,24.836,17.134ZM29.19,21.1a2.616,2.616,0,1,1-2.616-4.531L28.94,15.2l2.616,4.531Zm5.286-3.052L32.311,19.3,29.7,14.767l2.164-1.249a2.616,2.616,0,1,1,2.616,4.531Z" transform="translate(-15.701)"/></g></g></svg>