                <svg xmlns="http://www.w3.org/2000/svg" id="Layer_1" data-name="Layer 1" viewBox="0 0 100 100"><path d="M49,82.27,52.51,85c-.17.23-.35.45-.54.67s-.59.7-.91,1a27.48,27.48,0,0,1-3.46-2.84c.32-.33.62-.67.91-1Z" style="fill:#547dbf"/><path d="M57.37,27.58v4.33a32,32,0,0,0-4.48,1.85V27.58A19.13,19.13,0,0,0,33.79,8.46h-4a19.13,19.13,0,0,0-19.1,19.12V70.66a19.12,19.12,0,0,0,19.1,19.1h4a19,19,0,0,0,11-3.5,29.73,29.73,0,0,0,3.5,3,23.35,23.35,0,0,1-14.53,5h-4A23.59,23.59,0,0,1,6.18,70.66V27.58A23.6,23.6,0,0,1,29.75,4h4A23.61,23.61,0,0,1,57.37,27.58Z" style="fill:#547dbf"/><path d="M52.89,37.85a28.67,28.67,0,0,1,4.48-2.14v3.47H52.89Z" style="fill:#547dbf"/><polygon points="39.18 46.88 37.56 51.36 10.62 51.36 10.62 46.88 39.18 46.88" style="fill:#393e57"/><path d="M44.61,46.88v4.48H40.94c.17-.38.34-.76.53-1.13l.06-.13c.11-.22.23-.45.36-.67l.29-.55c.13-.25.28-.5.42-.74.25-.42.49-.85.76-1.26Z" style="fill:#393e57"/><path d="M41.89,49.43l-.11.22c-.09.15-.17.3-.25.45C41.64,49.88,41.76,49.65,41.89,49.43Z" style="fill:#393e57"/><path d="M43.36,46.88c-.27.41-.51.84-.76,1.26-.14.24-.29.49-.42.74l-.29.55-.11.22L41,51.36l-.13.27,0,.08" style="fill:none"/><path d="M91,45.77A29.06,29.06,0,0,0,57.37,35.71a28.67,28.67,0,0,0-4.48,2.14,28.22,28.22,0,0,0-2.4,1.57,28.94,28.94,0,0,0-7,7.24l-.14.22c-.27.41-.51.84-.76,1.26-.14.24-.29.49-.42.74l-.29.55c-.13.22-.25.45-.36.67l-.06.13c-.19.37-.36.75-.53,1.13,0,.09-.08.18-.11.27l0,.08a29.28,29.28,0,0,0-1.87,6.65,28.78,28.78,0,0,0,5.22,21.56,27.81,27.81,0,0,0,3.46,3.94,27.48,27.48,0,0,0,3.46,2.84,28.81,28.81,0,0,0,12,4.79,29.15,29.15,0,0,0,4.55.35A29,29,0,0,0,91,45.77ZM83.81,85.19A27.61,27.61,0,0,1,52,85.66a28.52,28.52,0,0,1-6.7-6.52A27.61,27.61,0,0,1,42.5,51.36a25.87,25.87,0,0,1,2.11-3.78,27.77,27.77,0,0,1,6.71-7,25.09,25.09,0,0,1,2.16-1.42,27.58,27.58,0,0,1,30.33,46ZM39.17,46.88c-.06.1-.11.2-.16.3s-.23.41-.33.62a7.73,7.73,0,0,0-.4.75.69.69,0,0,0-.07.15c-.22.41-.41.84-.6,1.27,0,.1-.09.2-.12.3l-.05.09c-.14.33-.27.66-.4,1h.52l1.62-4.48Z" style="fill:#fff"/><path d="M91,45.77A29.06,29.06,0,0,0,57.37,35.71a28.67,28.67,0,0,0-4.48,2.14,28.22,28.22,0,0,0-2.4,1.57,28.94,28.94,0,0,0-7,7.24l-.14.22c-.27.41-.51.84-.76,1.26-.14.24-.29.49-.42.74l-.29.55c-.13.22-.25.45-.36.67l-.06.13c-.19.37-.36.75-.53,1.13,0,.09-.08.18-.11.27l0,.08a29.28,29.28,0,0,0-1.87,6.65,28.78,28.78,0,0,0,5.22,21.56,27.81,27.81,0,0,0,3.46,3.94,27.48,27.48,0,0,0,3.46,2.84,28.81,28.81,0,0,0,12,4.79,29.15,29.15,0,0,0,4.55.35A29,29,0,0,0,91,45.77ZM63.77,87.07a24.35,24.35,0,0,1-14.62-8c-.49-.56-1-1.14-1.4-1.75s-.85-1.23-1.23-1.86a24.51,24.51,0,0,1,32-34.52A23.84,23.84,0,0,1,86,46.67l0,0,0,.05a19.58,19.58,0,0,1,1.34,1.67,22.29,22.29,0,0,1,1.23,1.87A24.51,24.51,0,0,1,63.77,87.07Z" style="fill:#393e57"/><rect x="42.99" y="60.67" width="49" height="4.47" transform="translate(-24.1 51.81) rotate(-36.08)" style="fill:#547dbf"/></svg>
