<svg xmlns="http://www.w3.org/2000/svg" width="25" height="25" viewBox="0 0 25 25"><defs><style>.a,.b,.c{fill:none;}.b,.c{stroke:#3c3c3c;stroke-linecap:round;stroke-linejoin:round;stroke-width:1.2px;}.b{fill-rule:evenodd;}</style></defs><g transform="translate(-278 -556)"><rect class="a" width="25" height="25" transform="translate(278 556)"/><g transform="translate(278 557)"><path class="b" d="M7.121,14.121a3,3,0,1,1,0-4.243A3,3,0,0,1,7.121,14.121Z"/><path class="b" d="M19,22a3,3,0,1,1,3-3A3,3,0,0,1,19,22Z"/><path class="b" d="M19,8a3,3,0,1,1,3-3A3,3,0,0,1,19,8Z"/><line class="c" x1="8" y2="4" transform="translate(8 6.5)"/><line class="c" x1="8" y1="4" transform="translate(8 13.5)"/></g></g></svg>