<svg xmlns="http://www.w3.org/2000/svg" width="30" height="30" viewBox="0 0 30 30"><defs><style>.a,.b{fill:none;}.b{fill-rule:evenodd;}.c{fill:#3c3c3c;}</style></defs><g transform="translate(-1045 -2983)"><rect class="a" width="30" height="30" transform="translate(1045 2983)"/><g transform="translate(1046.45 2984.45)"><path class="b" d="M0,0H27.1V27.1H0Z"/><path class="c" d="M13.6,2.032l9.87,3.548a.546.546,0,0,1,.362.513v7.368c0,5.738-3.47,9.576-10.272,11.442a.551.551,0,0,1-.288,0C6.472,23.088,3,19.248,3,13.462V6.094a.546.546,0,0,1,.362-.513l9.87-3.548A.551.551,0,0,1,13.6,2.032Zm-.186,1.094L4.1,6.477v6.985h0c0,5.214,3.061,8.639,9.319,10.35,6.261-1.757,9.323-5.183,9.323-10.35V6.477h0Z" transform="translate(0.132 0.088)"/><path class="c" d="M8.888,11.92a.522.522,0,0,0-.731.745l2.852,2.8a.522.522,0,0,0,.737-.006l5.5-5.568a.522.522,0,1,0-.743-.734l-5.134,5.2Z" transform="translate(0.852 0.878)"/></g></g></svg>