                <svg xmlns="http://www.w3.org/2000/svg" id="Layer_1" data-name="Layer 1" viewBox="0 0 100 100"><path d="M52.24,93.84H24.3A11.49,11.49,0,0,1,12.82,82.36V37.5A11.49,11.49,0,0,1,24.3,26H52.24A11.49,11.49,0,0,1,63.72,37.5v7.91h-4V37.5A7.49,7.49,0,0,0,52.24,30H24.3a7.49,7.49,0,0,0-7.48,7.48V82.36a7.49,7.49,0,0,0,7.48,7.48H52.24a7.37,7.37,0,0,0,4.16-1.27l2.26,3.3A11.34,11.34,0,0,1,52.24,93.84Z" style="fill:#547dbf"/><path d="M47.75,25.25H29.64a6.18,6.18,0,0,1-6.18-6.17V12.2A6.18,6.18,0,0,1,29.64,6H47.75a6.18,6.18,0,0,1,6.17,6.17v6.88A6.18,6.18,0,0,1,47.75,25.25ZM29.64,10a2.18,2.18,0,0,0-2.18,2.17v6.88a2.18,2.18,0,0,0,2.18,2.17H47.75a2.17,2.17,0,0,0,2.17-2.17V12.2A2.17,2.17,0,0,0,47.75,10Z" style="fill:#393e57"/><path d="M68.71,95A26.28,26.28,0,1,1,95,68.67,26.31,26.31,0,0,1,68.71,95Zm0-48.56A22.28,22.28,0,1,0,91,68.67,22.31,22.31,0,0,0,68.71,46.39Z" style="fill:#393e57"/><path d="M69.43,66.43c-4.63,0-7-8-7-11.48a7,7,0,1,1,14,0C76.45,58.55,74.68,66.43,69.43,66.43Zm0-15.5a4,4,0,0,0-4,4c0,2.95,2.13,8.48,4,8.48,2.49,0,4-5.49,4-8.48A4,4,0,0,0,69.43,50.93Z" style="fill:#547dbf"/><rect x="16.65" y="55.18" width="30.67" height="4" style="fill:#393e57"/><path d="M69.43,90a7,7,0,0,1-7-7c0-3.43,2.39-11.48,7-11.48,5.25,0,7,7.89,7,11.48A7,7,0,0,1,69.43,90Zm0-15.51c-1.89,0-4,5.54-4,8.48a4,4,0,1,0,8,0C73.45,80,71.92,74.48,69.43,74.48Z" style="fill:#547dbf"/><path d="M83.44,76C79.84,76,72,74.21,72,69c0-4.63,8-7,11.49-7a7,7,0,0,1,0,14Zm0-11c-3,0-8.49,2.13-8.49,4,0,2.49,5.49,4,8.49,4a4,4,0,0,0,0-8Z" style="fill:#547dbf"/><path d="M55.42,76a7,7,0,1,1,0-14c3.44,0,11.49,2.39,11.49,7C66.91,74.21,59,76,55.42,76Zm0-11a4,4,0,1,0,0,8c3,0,8.49-1.53,8.49-4C63.91,67.07,58.37,64.94,55.42,64.94Z" style="fill:#547dbf"/></svg>
