<svg id="Capa_1" enable-background="new 0 0 512 512" height="512" viewBox="0 0 512 512" width="512" xmlns="http://www.w3.org/2000/svg"><g><g><path d="m435.279 311.905v43.667l8 7 10.756 1.873c9.096-5.294 15.25-15.149 15.25-26.376v-23.865l-2.173-2.298h-31.833z" fill="#dbedff"/><path d="m438.786 338.067v-23.865l2.16-2.298h-30.5l-2.16 2.298v23.865c0 16.775 13.725 30.5 30.5 30.5 5.547 0 10.756-1.508 15.25-4.124-9.097-5.293-15.25-15.148-15.25-26.376z" fill="#b5dcff"/><path d="m237.294 76.238h-90.419l-2.012 2.904v35.831l1.991 2.598h91.637l1.597-2.598v-35.831z" fill="#00e49d"/><path d="m149.088 79.142 2.804-2.904h-41.667l-2.804 2.904v35.831l2.775 2.598h41.667l-2.775-2.598z" fill="#00d391"/><path d="m224.668 113.475h-85.328l-35.715 18.596-25.596 35v309l3.725 19.5 15.563 8.929h178.449c16.016 0 29-12.984 29-29v-281.926c.001-44.237-35.86-80.099-80.098-80.099z" fill="#6cf7c4"/><path d="m84.409 475.5v-281.926c0-44.238 35.862-80.099 80.099-80.099h-41.666c-44.238 0-80.099 35.862-80.099 80.099v281.926c0 16.016 12.984 29 29 29h41.667c-16.018 0-29.001-12.984-29.001-29z" fill="#00e49d"/><path d="m454.036 263.961h-6.256l-12.5 18.36v31.881h34.006v-23.865c0-11.227-6.154-21.081-15.25-26.376z" fill="#ff7ab9"/><path d="m454.036 263.961c-4.494-2.615-9.703-4.124-15.25-4.124-16.775 0-30.5 13.725-30.5 30.5v23.865h30.5v-23.865c0-11.227 6.153-21.081 15.25-26.376z" fill="#ff5ca8"/><path d="m241.233 207.205h-106.72l-11.984 9.867-2.5 11.25v149.75l15.76 13.133h105.444c13.487 0 24.521-11.035 24.521-24.521v-134.958c.001-13.487-11.034-24.521-24.521-24.521z" fill="#ff7ab9"/><path d="m123.421 366.683v-134.957c0-13.487 11.034-24.521 24.521-24.521h-41.667c-13.487 0-24.521 11.034-24.521 24.521v134.958c0 13.487 11.034 24.521 24.521 24.521h41.667c-13.486 0-24.521-11.035-24.521-24.522z" fill="#ff5ca8"/><path d="m87.996 45.142 8.336 2.679h158.679l9.25-7.25 1.994-3.064v-12.905c0-9.406-7.696-17.102-17.102-17.102h-19.898l-2.975 2.071h-31l-3.025-2.071h-37l-3.725 1.848h-30.875l-2.4-1.848h-19.898c-9.406 0-17.102 7.696-17.102 17.102v12.139z" fill="#6b7ed9"/><path d="m249.153 45.142h-19.898l-3.35-2.071h-30.875l-2.775 2.071h-37l-3.35-2.071h-31.5l-2.15 2.071h-19.898c-9.406 0-17.102-7.696-17.102-17.102v34c0 9.406 7.696 17.102 17.102 17.102h19.898l2.15-2.071h31.5l3.35 2.071h37l2.775-2.071h30.875l3.35 2.071h19.898c9.406 0 17.102-7.696 17.102-17.102v-34c0 9.406-7.696 17.102-17.102 17.102z" fill="#4d66d2"/><path d="m118.255 7.5h37v40.321h-37z" fill="#8896e0"/><path d="m118.255 45.142h37v34h-37z" fill="#6b7ed9"/><path d="m192.255 7.5h37v40.321h-37z" fill="#8896e0"/><path d="m192.255 45.142h37v34h-37z" fill="#6b7ed9"/><g><path d="m223.942 280.216h-24.068c-3.938 0-7.13-3.192-7.13-7.13v-24.068c0-3.938-3.192-7.13-7.13-7.13h-3.276l-4.89 5.399v28.144l-3.693 2.079h-20.533c-1.306 1.647-3.32 2.707-5.586 2.707h-4.274l-4.132 4.329v28.623l4.307 5.025h4.099c2.312 0 4.361 1.105 5.663 2.811h21.75l2.079 3.838v25.106l4.498 6.574h3.988c3.938 0 7.13-3.192 7.13-7.13v-24.069c0-3.938 3.192-7.13 7.13-7.13h24.068c3.938 0 7.13-3.192 7.13-7.13v-23.718c0-3.938-3.192-7.13-7.13-7.13z" fill="#dbedff"/><path d="m179.873 349.392v-24.069c0-3.938-3.192-7.13-7.13-7.13h-24.069c-3.938 0-7.13-3.192-7.13-7.13v-23.718c0-3.938 3.192-7.13 7.13-7.13h24.069c3.938 0 7.13-3.192 7.13-7.13v-24.068c0-3.703 2.824-6.745 6.435-7.095-.229-.022-.46-.035-.695-.035h-23.718c-3.938 0-7.13 3.192-7.13 7.13v24.068c0 3.938-3.192 7.13-7.13 7.13h-24.068c-3.938 0-7.13 3.192-7.13 7.13v23.718c0 3.938 3.192 7.13 7.13 7.13h24.068c3.938 0 7.13 3.192 7.13 7.13v24.069c0 3.938 3.192 7.13 7.13 7.13h23.718c.234 0 .466-.013.695-.035-3.611-.35-6.435-3.392-6.435-7.095z" fill="#b5dcff"/></g><path d="m374.279 336.269v43.667l8 7 10.756 1.873c9.096-5.294 15.25-15.149 15.25-26.376v-23.865l-2.173-2.298h-31.833z" fill="#dbedff"/><path d="m377.786 362.432v-23.865l2.16-2.298h-30.5l-2.16 2.298v23.865c0 16.775 13.725 30.5 30.5 30.5 5.547 0 10.756-1.508 15.25-4.124-9.097-5.294-15.25-15.148-15.25-26.376z" fill="#b5dcff"/><path d="m393.036 288.326h-6.256l-12.5 18.36v31.881h34.006v-23.865c0-11.227-6.154-21.082-15.25-26.376z" fill="#ff7ab9"/><path d="m393.036 288.326c-4.494-2.615-9.703-4.124-15.25-4.124-16.775 0-30.5 13.725-30.5 30.5v23.865h30.5v-23.865c0-11.227 6.153-21.082 15.25-26.376z" fill="#ff5ca8"/><path d="m383.598 191.681-30.877 30.877.707 10.607 6.282 8.93c10.176 2.689 21.495.072 29.434-7.868l16.875-16.875.089-3.161z" fill="#dbedff"/><path d="m367.578 212.66 16.875-16.875 3.153-.097-21.567-21.567-3.153.097-16.875 16.875c-11.862 11.862-11.862 31.272 0 43.134 3.922 3.922 8.672 6.539 13.699 7.868-2.689-10.177-.072-21.496 7.868-29.435z" fill="#b5dcff"/><path d="m430.762 171.043-4.424-4.424-21.821 4.144-22.544 22.544 24.046 24.046 16.875-16.875c7.94-7.941 10.557-19.26 7.868-29.435z" fill="#ff7ab9"/><path d="m430.762 171.043c-1.328-5.027-3.945-9.777-7.868-13.699-11.862-11.862-31.272-11.862-43.133 0l-16.875 16.875 21.567 21.567 16.875-16.875c7.939-7.94 19.258-10.557 29.434-7.868z" fill="#ff5ca8"/></g><g><path d="m161.882 364.022h23.718c8.067 0 14.63-6.563 14.63-14.63v-23.699h23.698c8.067 0 14.63-6.563 14.63-14.63v-23.718c0-8.067-6.562-14.63-14.63-14.63h-23.698v-23.699c0-8.067-6.562-14.63-14.63-14.63h-23.718c-8.067 0-14.63 6.563-14.63 14.63v23.699h-23.699c-8.067 0-14.63 6.563-14.63 14.63v23.718c0 8.067 6.562 14.63 14.63 14.63h23.699v23.699c0 8.067 6.563 14.63 14.63 14.63zm-37.959-53.329v-22.978h23.698c8.067 0 14.631-6.563 14.631-14.63v-23.698h22.978v23.698c0 8.067 6.562 14.63 14.63 14.63h23.698v22.978h-23.698c-8.067 0-14.63 6.563-14.63 14.63v23.698h-22.978v-23.698c0-8.067-6.563-14.63-14.631-14.63z"/><path d="m401.18 284.801c-6.458-5.066-14.583-8.099-23.408-8.099-20.953 0-38 17.047-38 38v47.729c0 20.953 17.047 38 38 38 19.072 0 34.903-14.126 37.592-32.463 6.458 5.066 14.583 8.099 23.408 8.099 20.953 0 38-17.047 38-38 0-6.923 0-40.807 0-47.729 0-20.953-17.047-38-38-38-19.072 0-34.903 14.126-37.592 32.463zm-.408 77.631c0 12.682-10.317 23-23 23s-23-10.318-23-23v-16.365h46zm0-31.365h-46v-16.365c0-12.682 10.317-23 23-23s23 10.318 23 23zm15-40.729c0-12.682 10.317-23 23-23s23 10.318 23 23v16.365h-46zm0 31.365h46v16.365c0 12.682-10.317 23-23 23s-23-10.318-23-23z"/><path d="m374.443 152.04c-4.895 4.895-28.855 28.855-33.75 33.75-14.815 14.816-14.815 38.924.001 53.74 14.804 14.805 38.937 14.803 53.74 0 5.819-5.819 25.657-25.656 33.75-33.75 14.815-14.816 14.815-38.924 0-53.74-14.816-14.815-38.923-14.817-53.741 0zm9.384 76.883c-8.941 8.943-23.586 8.94-32.526 0-8.968-8.967-8.968-23.559 0-32.527l11.571-11.571 32.527 32.527zm33.75-33.749-11.572 11.572-32.527-32.527 11.571-11.571c9.062-9.06 23.701-8.828 32.527 0 8.968 8.966 8.968 23.558.001 32.526z"/><path d="m35.228 193.574v281.926c0 20.126 16.374 36.5 36.5 36.5h84.513c4.143 0 7.5-3.358 7.5-7.5s-3.357-7.5-7.5-7.5h-84.513c-11.855 0-21.5-9.645-21.5-21.5v-281.926c0-40.107 32.689-72.599 72.6-72.599h101.826c39.742 0 72.6 32.335 72.6 72.599v281.926c0 11.855-9.645 21.5-21.5 21.5h-84.513c-4.143 0-7.5 3.358-7.5 7.5s3.357 7.5 7.5 7.5h84.513c20.126 0 36.5-16.374 36.5-36.5v-281.926c0-40.374-27.458-74.45-64.679-84.551v-22.381h1.564c13.565 0 24.602-11.036 24.602-24.602v-37.438c0-13.565-11.036-24.602-24.602-24.602h-19.898-37-37-37-19.899c-13.565 0-24.601 11.037-24.601 24.602v37.438c0 13.565 11.036 24.602 24.602 24.602h1.565v22.382c-37.222 10.1-64.68 44.176-64.68 84.55zm201.513-178.574h12.398c5.294 0 9.602 4.308 9.602 9.602v37.438c0 5.294-4.308 9.602-9.602 9.602-4.594 0-7.78 0-12.398 0zm-37 0h22v56.642h-22zm-37 0h22v56.642h-22zm-37 0h22v56.642h-22zm-10.833 71.642h117.667v19.695c-2.645-.24-5.494-.361-7.919-.361h-.001-.001-101.826c-2.457 0-5.346.124-7.92.361zm-16.566-15c-5.294 0-9.602-4.307-9.602-9.602v-37.438c0-5.294 4.308-9.602 9.602-9.602h12.398v56.642c-4.621 0-7.799 0-12.398 0z"/><path d="m265.741 289.205c4.143 0 7.5-3.358 7.5-7.5v-49.979c0-17.656-14.365-32.021-32.021-32.021h-134.958c-17.656 0-32.021 14.365-32.021 32.021v134.958c0 17.656 14.365 32.021 32.021 32.021h134.957c17.656 0 32.021-14.365 32.021-32.021v-49.979c0-4.142-3.357-7.5-7.5-7.5s-7.5 3.358-7.5 7.5v49.979c0 9.385-7.636 17.021-17.021 17.021h-134.957c-9.386 0-17.021-7.636-17.021-17.021v-134.958c0-9.385 7.636-17.021 17.021-17.021h134.957c9.386 0 17.021 7.636 17.021 17.021v49.979c.001 4.142 3.358 7.5 7.501 7.5z"/></g></g></svg>